# xmcd
#
# Track frame offsets: 
#        150
#        14870
#        28637
#        42822
#        57612
#        72485
#        85960
#        99525
#        113082
#        125795
#        139620
#        152777
#        166310
#        180992
#        194522
#        209095
#        218962
#        233515
#        245685
#        259530
#
# Disc length: 3629 seconds
#
# Revision: 4
# Processed by: cddbd v1.5.2PL0 Copyright (c) Steve Scherf et al.
# Submitted via: ExactAudioCopy v0.99pb5
#
DISCID=2a0e2b14
DTITLE=Woody Herman - Blues on Parade
DYEAR=1991
DGENRE=Jazz
TTITLE0=Woodchopper's Ball [4-12-39]
TTITLE1=Blues on Parade (prev. unissued) [11-20-39]
TTITLE2=Blues on Parade [12-13-39]
TTITLE3=Blue Prelude [2-5-40]
TTITLE4=Blue Flame [2-13-41]
TTITLE5=Doctor Jazz [4-26-37]
TTITLE6=River Red Blues [12-22-38]
TTITLE7=Dallas Blues [4-12-39]
TTITLE8=Blues Downstairs [4-12-39]
TTITLE9=Farewell Blues (prev. unissued) [5-24-39]
TTITLE10=Get Your Boots Laced, Pt.1 [4-18-40]
TTITLE11=Get Your Boots Laced, Pt.2 [4-18-40]
TTITLE12=Chip's Blues [9-9-40]
TTITLE13=Fan It [2-13-41]
TTITLE14=Everything Happens to Me [3-11-41]
TTITLE15=Woodsheddin' with Woody [8-21-41]
TTITLE16=Blues in the Night [9-10-41]
TTITLE17=Yardbird Shuffle [9-10-41]
TTITLE18=Las Chiapanecas [11-13-41]
TTITLE19=Down Under [7-24-42]
EXTD=YEAR: 1991 ID3G:   0
EXTT0=
EXTT1=
EXTT2=
EXTT3=
EXTT4=
EXTT5=
EXTT6=
EXTT7=
EXTT8=
EXTT9=
EXTT10=
EXTT11=
EXTT12=
EXTT13=
EXTT14=
EXTT15=
EXTT16=
EXTT17=
EXTT18=
EXTT19=
PLAYORDER=
